<svg height="512" viewBox="0 0 128 128" width="512" xmlns="http://www.w3.org/2000/svg"><g><path d="m94.818 40.748a71.837 71.837 0 0 0 -9.928-3.976 69.041 69.041 0 0 0 -15.566-3.056 66.183 66.183 0 0 0 -10.639 0 69.034 69.034 0 0 0 -15.57 3.056 71.788 71.788 0 0 0 -9.937 3.979c-16.738 8.23-28.428 22.006-28.428 33.499 0 18.685 30.583 20.25 59.25 20.25s59.25-1.565 59.25-20.25c0-11.493-11.69-25.269-28.432-33.502zm-2.595 2.652-1.429 21.235a1.463 1.463 0 0 1 -2.918.008l-1.594-23.708c1.997.716 3.983 1.547 5.941 2.465zm-28.223-6.4c1.112 0 2.218.04 3.315.1l-1.861 27.545a1.458 1.458 0 0 1 -2.908 0l-1.861-27.545c1.096-.06 2.201-.1 3.315-.1zm-22.282 3.935-1.593 23.7a1.463 1.463 0 0 1 -2.919.007l-1.429-21.242c1.958-.918 3.944-1.749 5.941-2.465zm22.282 50.065c-28.956 0-55.75-2.029-55.75-16.75 0-9.53 10.018-21.5 24.133-29.147l1.331 19.782a4.963 4.963 0 0 0 9.9-.008l1.686-25.095a65.693 65.693 0 0 1 11.9-2.389l1.858 27.482a4.957 4.957 0 0 0 9.892 0l1.85-27.482a65.576 65.576 0 0 1 11.9 2.39l1.688 25.1a4.963 4.963 0 0 0 9.9-.008l1.329-19.775c14.117 7.646 24.133 19.618 24.133 29.147 0 14.724-26.794 16.753-55.75 16.753z"/><path d="m85.377 84.379c-2.58.181-5.376.323-8.31.423a1.75 1.75 0 0 0 .058 3.5h.061c2.976-.1 5.814-.246 8.437-.43a1.75 1.75 0 1 0 -.246-3.491z"/></g></svg>