<?xml version="1.0" encoding="iso-8859-1"?>
<!-- Generator: Adobe Illustrator 19.0.0, SVG Export Plug-In . SVG Version: 6.00 Build 0)  -->
<svg version="1.1" id="Layer_1" xmlns="http://www.w3.org/2000/svg" xmlns:xlink="http://www.w3.org/1999/xlink" x="0px" y="0px"
	 viewBox="0 0 512.002 512.002" style="enable-background:new 0 0 512.002 512.002;" xml:space="preserve">
<g>
	<g>
		<path d="M510.112,82.738c-1.511-2.16-3.693-3.575-6.07-4.157c-4.836-1.288-60.03-15.149-98.728,11.477
			c-2.532,1.742-4.918,3.619-7.175,5.597c2.427-18.677,3.688-37.592,3.688-56.652c0-5.77-4.677-10.447-10.447-10.447
			s-10.447,4.677-10.447,10.447c0,10.358-0.388,20.629-1.128,30.806c-21.31-32.691-63.589-47.081-70.865-49.358
			c-2.287-0.835-4.875-0.878-7.326,0.064c-2.495,0.958-4.411,2.769-5.543,4.975c-2.185,4.059-24.959,47.814-14.718,89.108
			c-0.888-0.026-1.792,0.053-2.698,0.265c-2.513,0.59-4.599,2.043-6.02,3.973c-2.791,3.634-31.13,41.633-29.015,83.009
			c-9.897-7.125-18.185-11.483-20.958-12.874c-2.153-1.201-4.739-1.65-7.335-1.078c-2.473,0.543-4.548,1.923-5.992,3.778
			c-1.254,1.604-25.441,33.008-28.895,70.111c-7.409-7.411-13.639-12.301-15.897-14.004c-1.85-1.537-4.258-2.468-6.828-2.406
			c-2.703,0.04-5.152,1.104-6.984,2.82c-3.667,3.306-45.431,42.042-44.202,89.036c0.903,34.14,24.506,62.224,39.405,76.605
			c-41.895,20.122-87.857,33.484-136.58,38.617c-5.737,0.605-9.899,5.746-9.295,11.484c0.565,5.367,5.098,9.353,10.377,9.353
			c0.366,0,0.735-0.02,1.107-0.059c51.668-5.443,101.414-20.033,147.198-42.671c9.434,15.32,34.997,50.933,73.228,59.624
			c6.145,1.395,12.282,2.007,18.325,2.007c38.012-0.001,72.153-24.218,79.493-29.811c0.992-0.632,1.887-1.438,2.634-2.399
			c2.439-3.138,2.886-7.389,1.153-10.966c-0.879-1.813-17.307-35.104-46.97-55.33c13.218,6.717,28.773,11.902,45.354,11.9
			c1.441,0,2.897-0.04,4.353-0.12c44.706-2.493,78.064-43.951,84.377-52.393c0.774-0.873,1.408-1.884,1.862-3.001
			c1.5-3.696,0.764-7.924-1.896-10.896c-1.051-1.175-16.923-18.647-40.325-31.21c12.72-0.575,25.989-3.252,38.285-9.592
			c39.833-20.554,53.31-71.969,55.624-82.283c0.342-1.086,0.509-2.238,0.477-3.415c-0.109-4.019-2.514-7.618-6.184-9.257
			c-1.097-0.49-13.909-6.104-31.665-9.595c10.776-2.304,21.55-6.354,31.267-13.044c37.862-26.063,43.196-82.21,43.798-90.84
			C512.215,87.482,511.637,84.919,510.112,82.738z M384.209,194.182c-4.206,1.102-8.377,2.533-12.461,4.348
			c0.823-2.103,1.626-4.213,2.416-6.329C376.833,192.818,380.233,193.524,384.209,194.182z M310.735,43.3
			c15.189,6.057,46.542,21.438,56.949,48.332c10.428,26.945-1.602,59.333-8.348,73.978c-7.32-3.09-18.537-8.541-29.242-16.592
			c-5.012-5.482-10.332-10.326-15.494-14.507c-4.42-5.289-8.177-11.228-10.742-17.856C293.485,89.828,304.426,57.922,310.735,43.3z
			 M354.312,186.102c-0.49,1.303-0.966,2.613-1.469,3.909c-0.394-1.713-0.841-3.401-1.347-5.06
			C352.492,185.369,353.433,185.753,354.312,186.102z M284.254,138.761c4.322,2.596,10.019,6.318,16.004,11.045
			c4.802,5.439,10.081,10.261,15.485,14.475c7.824,8.81,14.422,19.349,16.949,31.336c5.961,28.271-11.121,58.304-20.133,71.675
			c-13.483-8.471-40.893-28.815-46.883-57.237C259.75,181.918,275.677,152.183,284.254,138.761z M291.292,278.034
			c3.561,2.618,6.885,4.852,9.758,6.669c-3.786,5.184-7.696,10.272-11.715,15.27C290.774,292.905,291.541,285.532,291.292,278.034z
			 M220.777,211.819c14.018,8.421,42.493,28.644,48.44,56.86c5.961,28.271-11.121,58.304-20.133,71.674
			c-13.483-8.471-40.893-28.815-46.883-57.236C196.27,254.952,212.202,225.228,220.777,211.819z M251.283,368.984
			c4.781,4.382,12.466,10.856,22.23,17.158c-5.307-2.514-10.943-4.538-16.9-5.89c-5.514-1.253-11.029-1.843-16.478-1.914
			C243.899,375.285,247.615,372.167,251.283,368.984z M234.858,356.002c-9.387,7.989-19.14,15.569-29.236,22.711
			c5.624-10.944,9.947-23.36,10.985-36.632C223.15,347.849,229.551,352.499,234.858,356.002z M127.418,336.674
			c-0.753-28.763,20.278-55.131,31.132-66.777c12.269,10.813,36.63,35.842,37.39,64.663c0.765,28.881-21.453,55.342-32.729,66.868
			C151.477,390.665,128.186,365.715,127.418,336.674z M310.468,450.459c-13.6,8.921-44.556,26.001-73.87,19.346
			c-29.04-6.602-50.038-34.519-58.798-48.213c13.784-9.438,45.095-27.57,74.187-20.965
			C281.142,407.245,301.931,436.376,310.468,450.459z M398.827,346.925c-10.417,12.044-34.678,36.056-63.678,37.672
			c-28.747,1.611-55.714-18.657-67.662-29.161c10.447-12.579,34.753-37.665,63.543-39.269
			C359.884,314.565,386.976,335.992,398.827,346.925z M451.775,219.405c-4.589,15.247-16.927,47.074-42.741,60.394
			c-25.586,13.193-58.473,5.721-73.672,1.011c4.398-15.75,16.339-48.571,41.966-61.794
			C403.003,205.767,436.492,214.264,451.775,219.405z M456.283,163.563c-23.799,16.386-58.093,12.181-73.901,9.009
			c2.63-15.706,10.853-48.834,34.779-65.304c23.704-16.308,57.274-13.049,72.955-10.299
			C487.739,113.148,480.037,147.212,456.283,163.563z"/>
	</g>
</g>
<g>
</g>
<g>
</g>
<g>
</g>
<g>
</g>
<g>
</g>
<g>
</g>
<g>
</g>
<g>
</g>
<g>
</g>
<g>
</g>
<g>
</g>
<g>
</g>
<g>
</g>
<g>
</g>
<g>
</g>
</svg>
