<?xml version="1.0" encoding="iso-8859-1"?>
<!-- Generator: Adobe Illustrator 19.0.0, SVG Export Plug-In . SVG Version: 6.00 Build 0)  -->
<svg version="1.1" id="Capa_1" xmlns="http://www.w3.org/2000/svg" xmlns:xlink="http://www.w3.org/1999/xlink" x="0px" y="0px"
	 viewBox="0 0 496 496" style="enable-background:new 0 0 496 496;" xml:space="preserve">
<g>
	<g>
		<g>
			<path d="M224,352c0-20.44,1.472-31.832,3.176-45.04C229.44,289.448,232,269.592,232,224c0-56-20.728-80.16-39.008-101.472
				C178.24,105.336,164.208,88.952,160.8,56H176V40h-16V24c0-13.232-10.768-24-24-24h-32C90.768,0,80,10.768,80,24v16H64v16h15.2
				c-3.416,32.952-17.44,49.336-32.192,66.528C28.728,143.84,8,168,8,224c0,45.592,2.56,65.448,4.816,82.96
				C14.528,320.168,16,331.56,16,352c0,17.672-3.224,26.52-6.968,36.76C4.8,400.352,0,413.488,0,440v12c0,24.256,19.744,44,44,44
				c15.488,0,29.104-8.064,36.944-20.192C89.656,488.008,103.896,496,120,496s30.344-7.992,39.056-20.192
				C166.896,487.936,180.512,496,196,496c24.256,0,44-19.744,44-44v-12c0-26.512-4.8-39.648-9.032-51.24
				C227.224,378.52,224,369.672,224,352z M216,224c0,2.496-0.008,4.88-0.024,7.224c-9.432,45.928-38.232,83.856-85.592,112.776
				H31.92c-0.088-4.368-0.256-8.32-0.472-12c34.648-10.76,124.312-46.44,154.072-132h28.92C215.44,207.176,216,215.088,216,224z
				 M213.872,282.224c-0.792,8.848-1.704,15.96-2.568,22.688c-1.472,11.44-2.88,22.352-3.224,39.088h-49.256
				C182.512,326.2,201.016,305.4,213.872,282.224z M96,24c0-4.416,3.584-8,8-8h32c4.416,0,8,3.584,8,8v16H96V24z M59.152,132.952
				C75.2,114.24,91.712,94.928,95.272,56h49.464c3.56,38.928,20.072,58.24,36.12,76.952c12.256,14.288,24.032,28.064,30.36,51.048
				H28.792C35.12,161.016,46.896,147.24,59.152,132.952z M25.552,200H168.48C140.24,272.432,63.744,304.712,30.016,315.656
				c-0.416-3.656-0.864-7.176-1.32-10.744C26.488,287.872,24,268.56,24,224C24,215.088,24.56,207.176,25.552,200z M224,452
				c0,15.44-12.56,28-28,28s-28-12.56-28-28v-4v-8h-16v8c0,17.648-14.352,32-32,32s-32-14.352-32-32v-8H72v8v4
				c0,15.44-12.56,28-28,28s-28-12.56-28-28v-12c0-23.68,3.912-34.4,8.064-45.76c3.352-9.2,6.8-18.704,7.696-34.24h176.48
				c0.896,15.536,4.344,25.04,7.696,34.24C220.088,405.6,224,416.32,224,440V452z"/>
			<path d="M55.36,163.616l13.392,8.768c2.392-3.656,5.28-7.464,9.384-12.352l-12.264-10.28
				C62.832,153.384,58.88,158.232,55.36,163.616z"/>
			<path d="M73.912,140.304l12.168,10.392c16.248-19.056,32.664-40.72,39.144-77.296l-15.752-2.8
				C103.688,103.264,89.352,122.208,73.912,140.304z"/>
			<path d="M482.368,205.88c-4.416-3.632-8.112-6.712-9.624-13.88H488v-16H280v16h15.256c-1.512,7.176-5.208,10.256-9.624,13.88
				C279.56,210.872,272,217.08,272,232v240h8c8.816,0,16,7.176,16,16v8h176v-8c0-8.824,7.176-16,16-16h8V232
				C496,217.08,488.44,210.872,482.368,205.88z M295.792,218.248c5.888-4.84,13.6-11.256,15.656-26.248H456.56
				c2.056,14.992,9.768,21.416,15.656,26.248c2.608,2.144,4.56,3.744,5.864,5.752H289.928
				C291.224,222,293.176,220.392,295.792,218.248z M288,240h149.896C414.192,328.568,318.936,364.16,288,373.52V240z M480,457.016
				c-11.224,2.896-20.088,11.76-22.984,22.984H310.984c-2.896-11.224-11.76-20.088-22.984-22.984V448h192V457.016z M480,432H367.488
				c9.824-4.312,20.544-9.608,31.576-16.112c36.832-21.72,64.192-49.424,80.936-81.52V432z M480,287.088
				C457.792,395.592,330.064,429.296,319.064,432H288v-41.792c12.192-3.352,40.568-12.328,71.064-30.32
				c50.808-29.96,83.592-71.32,95.296-119.888H480V287.088z"/>
		</g>
	</g>
</g>
<g>
</g>
<g>
</g>
<g>
</g>
<g>
</g>
<g>
</g>
<g>
</g>
<g>
</g>
<g>
</g>
<g>
</g>
<g>
</g>
<g>
</g>
<g>
</g>
<g>
</g>
<g>
</g>
<g>
</g>
</svg>
