<?xml version="1.0" encoding="iso-8859-1"?>
<!-- Generator: Adobe Illustrator 19.0.0, SVG Export Plug-In . SVG Version: 6.00 Build 0)  -->
<svg version="1.1" id="Capa_1" xmlns="http://www.w3.org/2000/svg" xmlns:xlink="http://www.w3.org/1999/xlink" x="0px" y="0px"
	 viewBox="0 0 512 512" style="enable-background:new 0 0 512 512;" xml:space="preserve">
<g>
	<g>
		<path d="M512,133.05c0-5.577-4.522-10.1-10.1-10.1H195.873H61.743H10.1c-5.578,0-10.1,4.523-10.1,10.1
			c0,68.38,26.628,132.669,74.98,181.021c23.657,23.657,51.135,42.098,81.035,54.779H85.64c-5.578,0-10.1,4.523-10.1,10.1
			s4.522,10.1,10.1,10.1H426.36c5.578,0,10.1-4.523,10.1-10.1s-4.522-10.1-10.1-10.1h-70.375
			c29.9-12.682,57.377-31.123,81.035-54.779C485.372,265.719,512,201.431,512,133.05z M71.843,143.151h113.93v72.238
			c0,8.155-3.174,15.814-8.945,21.577c-5.753,5.762-13.413,8.936-21.568,8.936c-16.825,0-30.513-13.688-30.513-30.513v-20.858
			c0-5.578-4.522-10.1-10.1-10.1s-10.1,4.523-10.1,10.1c0,4.369-1.701,8.477-4.789,11.565s-7.194,4.788-11.564,4.788
			c-9.016,0-16.352-7.336-16.352-16.352V143.151z M256,368.85c-126.64,0-230.282-100.342-235.586-225.7h31.229v51.38
			c0,20.155,16.398,36.553,36.553,36.553c6.255,0,12.269-1.56,17.599-4.495c5.113,22.593,25.351,39.512,49.467,39.512
			c13.555,0,26.292-5.278,35.852-14.851c9.584-9.57,14.861-22.305,14.861-35.862v-72.238h285.612
			C486.282,268.51,382.64,368.85,256,368.85z"/>
	</g>
</g>
<g>
	<g>
		<path d="M406.379,168.439h-69.082c-5.578,0-10.1,4.523-10.1,10.1s4.522,10.1,10.1,10.1h69.081c5.578,0,10.1-4.523,10.1-10.1
			S411.957,168.439,406.379,168.439z"/>
	</g>
</g>
<g>
	<g>
		<path d="M437.016,167.82c-12.998,0-13.019,20.2,0,20.2C450.014,188.02,450.035,167.82,437.016,167.82z"/>
	</g>
</g>
<g>
</g>
<g>
</g>
<g>
</g>
<g>
</g>
<g>
</g>
<g>
</g>
<g>
</g>
<g>
</g>
<g>
</g>
<g>
</g>
<g>
</g>
<g>
</g>
<g>
</g>
<g>
</g>
<g>
</g>
</svg>
